<?xml version="1.0" encoding="UTF-8"?>
<svg width="615px" height="512px" viewBox="0 0 615 512" xmlns="http://www.w3.org/2000/svg" xmlns:xlink="http://www.w3.org/1999/xlink" version="1.1">
 <!-- Generated by Pixelmator Pro 2.0.5 -->
 <g id="g76-copy">
  <g id="g78">
   <g id="g84">
    <path id="path86" d="M357.608 302.833 L357.608 217.894 336.843 201.497 282.178 201.497 282.178 217.894 333.563 217.894 333.563 324.3 259.226 324.3 259.226 218.348 235.536 202.018 235.536 154.855 333.563 154.855 333.563 178.9 357.608 178.9 357.608 169.138 478.658 209.791 C478.513 210.702 478.417 211.629 478.417 212.58 478.417 218.517 481.363 223.766 485.86 226.982 L455.184 288.334 455.184 261.288 443.284 261.288 443.284 297.161 395.151 297.161 395.151 267.385 389.024 261.288 377.125 261.288 370.995 267.405 370.995 302.757 Z M496.126 200.937 C502.544 200.937 507.768 206.16 507.768 212.58 507.768 218.999 502.544 224.222 496.126 224.222 489.703 224.222 484.481 218.999 484.481 212.58 484.481 206.16 489.703 200.937 496.126 200.937 M312.854 441.799 C312.854 448.219 307.632 453.441 301.209 453.441 294.789 453.441 289.566 448.219 289.566 441.799 289.566 435.38 294.789 430.156 301.209 430.156 307.632 430.156 312.854 435.38 312.854 441.799 M138.262 257.746 C131.839 257.746 126.616 252.523 126.616 246.103 126.616 239.684 131.839 234.461 138.262 234.461 144.68 234.461 149.904 239.684 149.904 246.103 149.904 252.523 144.68 257.746 138.262 257.746 M336.347 62.495 C336.347 56.075 341.57 50.853 347.99 50.853 354.408 50.853 359.632 56.075 359.632 62.495 359.632 68.914 354.408 74.138 347.99 74.138 341.57 74.138 336.347 68.914 336.347 62.495 M377.125 369.27 L400.92 369.27 406.87 363.339 406.87 309.238 443.284 309.238 443.284 369.27 455.184 369.27 455.184 298.508 489.874 229.126 C491.822 229.864 493.923 230.286 496.126 230.286 505.888 230.286 513.832 222.345 513.832 212.58 513.832 202.814 505.888 194.873 496.126 194.873 488.872 194.873 482.632 199.258 479.897 205.513 L357.608 164.445 357.608 143.187 344.854 130.441 333.783 130.441 347.065 80.154 C347.374 80.171 347.678 80.202 347.99 80.202 357.75 80.202 365.695 72.26 365.695 62.495 365.695 52.729 357.75 44.787 347.99 44.787 338.226 44.787 330.283 52.729 330.283 62.495 330.283 70.369 335.452 77.052 342.573 79.346 L329.158 130.134 330.319 130.441 199.824 130.441 187.07 143.169 187.07 245.95 155.909 244.944 C155.308 235.719 147.633 228.398 138.262 228.398 128.497 228.398 120.552 236.338 120.552 246.103 120.552 255.869 128.497 263.81 138.262 263.81 146.866 263.81 154.05 257.638 155.635 249.488 L187.07 250.503 187.07 335.98 199.824 348.713 273.294 348.713 294.047 425.619 C287.845 428.376 283.502 434.584 283.502 441.799 283.502 451.564 291.447 459.505 301.209 459.505 310.974 459.505 318.918 451.564 318.918 441.799 318.918 432.034 310.974 424.092 301.209 424.092 300.255 424.092 299.326 424.19 298.412 424.335 L278.005 348.713 344.854 348.713 357.608 335.96 357.608 307.286 370.995 307.21 370.995 363.15 Z" fill="white" fill-opacity="1" stroke="none"/>
   </g>
   <g id="g88">
    <path id="path90" d="M95.603 150.393 L129.44 150.393 C167.361 80.446 241.445 32.839 326.445 32.839 449.926 32.839 550.382 133.298 550.382 256.775 550.382 285.263 544.978 312.498 535.234 337.585 L567.46 337.585 C576.002 312.178 580.703 285.023 580.703 256.775 580.703 186.731 552.23 123.21 506.251 77.179 L556.592 77.179 556.592 60.57 487.984 60.57 C444.03 24.318 387.736 2.517 326.445 2.517 229.075 2.517 144.398 57.589 101.704 138.176 L22.811 138.176 22.811 150.305 95.646 150.305 C95.632 150.335 95.616 150.364 95.603 150.393" fill="white" fill-opacity="1" stroke="none"/>
   </g>
   <path id="path92" d="M611.632 345.382 L506 345.382 506 372.381 611.632 372.381 Z" fill="white" fill-opacity="1" stroke="none"/>
   <path id="path94" d="M596.157 378.126 L419.897 378.126 419.897 385.479 596.157 385.479 Z" fill="white" fill-opacity="1" stroke="none"/>
   <g id="g96">
    <path id="path98" d="M90.379 162.522 C78.689 191.692 72.191 223.479 72.191 256.774 72.191 279.08 75.102 300.714 80.523 321.341 L112.041 321.341 C105.869 300.885 102.511 279.218 102.511 256.774 102.511 223.115 110.023 191.192 123.384 162.522 Z" fill="white" fill-opacity="1" stroke="none"/>
   </g>
   <g id="g100">
    <path id="path102" d="M326.445 511.032 C414.248 511.032 491.789 466.288 537.491 398.41 L499.754 398.41 C458.653 448.609 396.235 480.712 326.445 480.712 240.433 480.712 165.64 431.939 128.141 360.625 L127.565 360.625 127.565 360.621 72.114 360.621 72.114 363.791 95.914 363.791 C136.396 450.647 224.471 511.032 326.445 511.032" fill="white" fill-opacity="1" stroke="none"/>
   </g>
   <path id="path104" d="M171.169 331.867 L2 331.867 2 335.036 171.169 335.036 Z" fill="white" fill-opacity="1" stroke="none"/>
   <path id="path106" d="M164.152 337.735 L115.793 337.735 115.793 344.127 164.152 344.127 Z" fill="white" fill-opacity="1" stroke="none"/>
   <path id="path108" d="M113.986 356.35 L58.535 356.35 58.535 357.817 113.986 357.817 Z" fill="white" fill-opacity="1" stroke="none"/>
   <path id="path110" d="M539.803 81.337 L517.956 81.337 517.956 83.803 539.803 83.803 Z" fill="white" fill-opacity="1" stroke="none"/>
   <path id="path112" d="M578.249 341.09 L600.096 341.09 600.096 338.624 578.249 338.624 Z" fill="white" fill-opacity="1" stroke="none"/>
  </g>
 </g>
</svg>
